<?xml version="1.0" encoding="utf-8"?>
<!-- Generator: Adobe Illustrator 18.1.0, SVG Export Plug-In . SVG Version: 6.00 Build 0)  -->
<!DOCTYPE svg PUBLIC "-//W3C//DTD SVG 1.1//EN" "http://www.w3.org/Graphics/SVG/1.1/DTD/svg11.dtd">
<svg version="1.1" id="Layer_1" xmlns="http://www.w3.org/2000/svg" xmlns:xlink="http://www.w3.org/1999/xlink" x="0px" y="0px"
	 viewBox="0 0 225 225" enable-background="new 0 0 225 225" xml:space="preserve">
<g id="High_hat">
	<g>
		<path fill="#9D8F51" d="M112.6,224.5c-12.6,0-25.1-2.2-37.2-6.4c-28.2-9.9-50.8-30.3-63.7-57.2c-12.9-27-14.5-57.3-4.6-85.5
			C22.9,30.6,65.3,0.5,112.6,0.5c12.6,0,25.1,2.2,37.2,6.4c28.2,9.9,50.8,30.3,63.7,57.2c12.9,27,14.5,57.3,4.6,85.5
			C202.4,194.4,160,224.5,112.6,224.5z"/>
		<path fill="#8C8045" d="M112.6,1c12.3,0,24.8,2,37,6.4c58,20.5,88.5,84.1,68,142.1c-16.1,45.8-59.1,74.4-105,74.4
			c-12.3,0-24.8-2-37-6.4c-58-20.5-88.5-84.1-68-142.1C23.7,29.7,66.7,1,112.6,1 M112.6,0.1v1V0.1c-11.5,0-22.8,1.8-33.8,5.2
			c-10.9,3.4-21.1,8.5-30.4,15C29,33.8,14.6,52.8,6.7,75.1c-5,14.3-7.1,29.2-6.2,44.2c0.9,14.5,4.5,28.5,10.8,41.7
			c6.3,13.2,14.9,24.8,25.7,34.6c11.1,10.1,24,17.8,38.3,22.9c12.1,4.3,24.6,6.4,37.3,6.4c11.5,0,22.8-1.8,33.8-5.2
			c10.9-3.4,21.1-8.5,30.4-15c19.4-13.5,33.8-32.5,41.7-54.9c5-14.3,7.1-29.2,6.2-44.2c-0.9-14.5-4.5-28.5-10.8-41.7
			c-6.3-13.2-14.9-24.8-25.7-34.6c-11.1-10.1-24-17.8-38.3-22.9C137.9,2.2,125.3,0.1,112.6,0.1L112.6,0.1z"/>
	</g>
	<path fill="#C0AF67" d="M199.1,143c-16.7,47.5-68.8,72.5-116.3,55.7S10.4,129.9,27.1,82.4C43.9,34.8,95.9,9.9,143.4,26.6
		C190.9,43.4,215.8,95.5,199.1,143z"/>
	<path fill="#9D8F51" d="M136.2,120.8c-4.6,13-18.8,19.8-31.8,15.3c-13-4.6-19.8-18.9-15.2-31.9c4.6-13,18.8-19.8,31.8-15.3
		C133.9,93.5,140.8,107.8,136.2,120.8z"/>
	<path fill="#2A2A2A" d="M121,115.5c1.6-4.6-0.8-9.7-5.4-11.3c-4.6-1.6-9.7,0.8-11.3,5.4s0.8,9.7,5.4,11.3
		C114.3,122.5,119.4,120.1,121,115.5z"/>
	<circle fill="#CDCCCC" cx="112.6" cy="112.5" r="3.1"/>
	<g>
		<path fill="#CDCCCC" d="M119.8,115.3c-0.1,0.3-0.4,0.4-0.6,0.3l-13.5-4.8c-0.3-0.1-0.4-0.4-0.3-0.6l0.2-0.5
			c0.1-0.3,0.4-0.4,0.6-0.3l13.5,4.8c0.3,0.1,0.4,0.4,0.3,0.6L119.8,115.3z"/>
	</g>
	<g>
		<defs>
			<path id="XMLID_1_" d="M218.6,149.9c-20.6,58.6-84.8,89.3-143.4,68.7S-14.2,133.7,6.4,75.1C27,16.5,91.3-14.2,149.8,6.4
				S239.2,91.3,218.6,149.9z"/>
		</defs>
		<clipPath id="XMLID_3_">
			<use xlink:href="#XMLID_1_"  overflow="visible"/>
		</clipPath>
		
			<linearGradient id="SVGID_1_" gradientUnits="userSpaceOnUse" x1="-403.8542" y1="-270.5383" x2="-346.5779" y2="-270.5383" gradientTransform="matrix(0.7071 0.7071 -0.7071 0.7071 186.6459 569.2874)">
			<stop  offset="0" style="stop-color:#151011;stop-opacity:0"/>
			<stop  offset="2.741500e-02" style="stop-color:#E9E9E9;stop-opacity:0.236"/>
			<stop  offset="9.980270e-02" style="stop-color:#F9F9FA;stop-opacity:0.4392"/>
			<stop  offset="0.1621" style="stop-color:#FFFFFF;stop-opacity:0.6233"/>
			<stop  offset="0.35" style="stop-color:#FFFFFF;stop-opacity:0.95"/>
			<stop  offset="0.65" style="stop-color:#FFFFFF;stop-opacity:0.95"/>
			<stop  offset="0.8821" style="stop-color:#FFFFFF;stop-opacity:0.5584"/>
			<stop  offset="0.9332" style="stop-color:#FBFCFC;stop-opacity:0.4115"/>
			<stop  offset="0.9803" style="stop-color:#CFCDCD;stop-opacity:0.2091"/>
			<stop  offset="1" style="stop-color:#151011;stop-opacity:0"/>
		</linearGradient>
		<polygon opacity="0.3" clip-path="url(#XMLID_3_)" fill="url(#SVGID_1_)" points="38.8,227 -1.6,186.6 186.5,-1.7 226.9,38.8 		
			"/>
	</g>
</g>
</svg>
