<?xml version="1.0" encoding="utf-8"?>
<!-- Generator: Adobe Illustrator 18.1.0, SVG Export Plug-In . SVG Version: 6.00 Build 0)  -->
<!DOCTYPE svg PUBLIC "-//W3C//DTD SVG 1.1//EN" "http://www.w3.org/Graphics/SVG/1.1/DTD/svg11.dtd">
<svg version="1.1" id="Layer_1" xmlns="http://www.w3.org/2000/svg" xmlns:xlink="http://www.w3.org/1999/xlink" x="0px" y="0px"
	 viewBox="0 0 58 158" enable-background="new 0 0 58 158" xml:space="preserve">
<g id="Kick_beat">
	<g>
		<rect x="1.1" y="20.7" fill="#C7C6C6" width="55.5" height="2.5"/>
		<path fill="#9A9A9A" d="M56.9,23.5h-56v-3h56V23.5z M1.4,23h55v-2h-55V23z"/>
	</g>
	<g>
		<path fill="#131313" d="M7.6,26.9c0,1.4-1.1,2.5-2.5,2.5H2.5c-1.4,0-2.5-1.1-2.5-2.5V17c0-1.4,1.1-2.5,2.5-2.5H5
			c1.4,0,2.5,1.1,2.5,2.5V26.9z"/>
	</g>
	<g>
		<path fill="#131313" d="M58,26.9c0,1.4-1.1,2.5-2.5,2.5H53c-1.4,0-2.5-1.1-2.5-2.5V17c0-1.4,1.1-2.5,2.5-2.5h2.5
			c1.4,0,2.5,1.1,2.5,2.5V26.9z"/>
	</g>
	<g id="Kick_pedal">
		<g>
			<g>
				<path fill="#C7C6C6" d="M21.5,157.8c-5.9,0-10.6-5.1-10.8-11.6l-0.8-37.8c4.2-5.2,6.5-11.8,6.5-18.5c0.1-7.4-2.5-14.3-7.3-19.5
					L8.6,43.6c0-1.3,0.2-2.5,0.6-3.7c3.1-8.2,11-13.7,19.7-13.7c9.5,0,17.9,6.5,20.4,15.8l-0.6,28.5c-4.8,5.2-7.5,12.2-7.4,19.6
					c0.1,6.7,2.4,13.3,6.6,18.5l-0.8,37.6c-0.1,6.5-4.9,11.6-10.8,11.6H21.5z"/>
			</g>
			<g>
				<g>
					<path fill="#9A9A9A" d="M28.9,26.5c9.4,0,17.7,6.4,20.1,15.5l-0.6,28.3C43.6,75.6,40.9,82.6,41,90c0.1,6.7,2.4,13.3,6.6,18.6
						l-0.8,37.6c-0.1,6.3-4.8,11.3-10.5,11.3H21.5c-5.8,0-10.4-5-10.5-11.3l-0.8-37.7c4.2-5.3,6.5-11.8,6.5-18.5
						c0.1-7.4-2.5-14.4-7.3-19.6L8.8,43.6c0-1.2,0.2-2.5,0.6-3.6C12.5,31.9,20.3,26.5,28.9,26.5 M28.9,26c-9.1,0-16.9,5.8-20,13.9
						c-0.5,1.2-0.7,2.5-0.6,3.8l0.6,27c4.6,4.9,7.4,11.8,7.3,19.4c-0.1,6.9-2.5,13.3-6.6,18.4l0.8,37.8c0.1,6.6,5,11.8,11,11.8h14.9
						c6,0,10.9-5.2,11-11.8l0.8-37.7c-4.1-5-6.5-11.5-6.6-18.4c-0.1-7.7,2.8-14.5,7.4-19.5l0.6-28.6l0,0c0,0,0,0,0,0
						C47.1,32.7,38.7,26,28.9,26L28.9,26z"/>
				</g>
			</g>
		</g>
		<g>
			<path fill="#CDCCCC" d="M48.9,43.3L48.9,43.3C48.9,43.3,48.9,43.3,48.9,43.3L48.9,43.3z"/>
		</g>
		<g>
			<g>
				<polygon fill="#888888" points="28.9,120.7 28.9,123.3 38.7,120.7 38.7,118.1 				"/>
			</g>
		</g>
		<g>
			<g>
				<polygon fill="#9A9A9A" points="19.2,118.1 19.1,120.7 28.9,123.3 28.9,120.7 				"/>
			</g>
		</g>
		<g>
			<g>
				<polygon fill="#888888" points="28.9,128.6 28.9,126 38.7,123.3 38.7,126 				"/>
			</g>
		</g>
		<g>
			<g>
				<polygon fill="#9A9A9A" points="19.1,126 19.1,123.3 28.9,126 28.9,128.6 				"/>
			</g>
		</g>
		<g>
			<polygon fill="#888888" points="38.7,115.5 28.9,118.1 28.9,112.9 			"/>
		</g>
		<g>
			<polygon fill="#9A9A9A" points="28.9,112.9 28.9,118.1 19.2,115.5 			"/>
		</g>
		<g>
			<path fill="none" stroke="#565656" stroke-miterlimit="10" d="M49.1,44.5"/>
		</g>
		<g>
			<polygon fill="#888888" points="46.6,61.9 46.4,66.6 28.9,61.8 28.9,57.1 			"/>
		</g>
		<g>
			<polygon fill="#888888" points="46.7,52.4 46.7,57.2 28.9,52.4 28.9,47.7 			"/>
		</g>
		<g>
			<polygon fill="#888888" points="47,43.2 46.9,47.9 28.9,43.1 28.9,38.5 			"/>
		</g>
		<g>
			<polygon fill="#9A9A9A" points="28.9,57.1 28.9,61.8 11.4,66.6 11.3,61.9 			"/>
		</g>
		<g>
			<polygon fill="#9A9A9A" points="28.9,47.7 28.9,52.4 11.2,57.2 11.1,52.5 			"/>
		</g>
		<g>
			<polygon fill="#9A9A9A" points="28.9,38.5 28.9,43.1 11,47.9 10.8,43.3 			"/>
		</g>
		<g>
			<path fill="none" stroke="#131313" stroke-miterlimit="10" d="M47.1,41.2"/>
		</g>
		<g>
			<path fill="none" stroke="#131313" stroke-miterlimit="10" d="M46.5,68"/>
		</g>
		<g>
			<line fill="none" x1="10.3" y1="138.8" x2="47.5" y2="138.8"/>
		</g>
		<g>
			<polyline fill="#C7C6C6" points="10.5,138.8 19,138.8 18.9,144.2 38.9,144.2 38.9,138.8 47.3,138.8 			"/>
			<polygon fill="#9A9A9A" points="39.9,145.2 17.9,145.2 18,139.8 10.5,139.8 10.5,137.8 20,137.8 20,143.2 37.9,143.2 37.8,137.8 
				47.3,137.8 47.3,139.8 39.9,139.8 			"/>
		</g>
	</g>
	<g id="Kick_knob_1_">
		<g>
			<ellipse fill="#FFFFFF" cx="28.9" cy="14.5" rx="15.1" ry="14"/>
			<path fill="#9A9A9A" d="M28.9,28.9c-8.6,0-15.6-6.5-15.6-14.5c0-8,7-14.5,15.6-14.5c8.6,0,15.6,6.5,15.6,14.5
				C44.5,22.4,37.5,28.9,28.9,28.9z M28.9,1c-8.1,0-14.6,6-14.6,13.5c0,7.4,6.6,13.5,14.6,13.5s14.6-6,14.6-13.5C43.5,7,37,1,28.9,1
				z"/>
		</g>
		<g>
			<ellipse fill="#C7C6C6" cx="28.9" cy="14.5" rx="5" ry="4.7"/>
			<path fill="#9A9A9A" d="M28.9,19.4c-2.9,0-5.3-2.2-5.3-4.9s2.4-4.9,5.3-4.9s5.3,2.2,5.3,4.9S31.8,19.4,28.9,19.4z M28.9,10.1
				c-2.6,0-4.8,2-4.8,4.4s2.2,4.4,4.8,4.4c2.6,0,4.8-2,4.8-4.4S31.5,10.1,28.9,10.1z"/>
		</g>
		<g>
			<ellipse fill="#DEDEDD" cx="28.9" cy="14.5" rx="2.5" ry="2.3"/>
			<path fill="#ABABAB" d="M28.9,16.9c-1.5,0-2.6-1.1-2.6-2.5s1.2-2.5,2.6-2.5c1.5,0,2.6,1.1,2.6,2.5S30.3,16.9,28.9,16.9z
				 M28.9,12.3c-1.3,0-2.4,1-2.4,2.2s1.1,2.2,2.4,2.2c1.3,0,2.4-1,2.4-2.2S30.2,12.3,28.9,12.3z"/>
		</g>
		<g>
			<ellipse fill="#F1F0F0" cx="28.9" cy="14.5" rx="1.3" ry="1.2"/>
			<path fill="#9A9A9A" d="M28.9,15.8c-0.8,0-1.4-0.6-1.4-1.3s0.6-1.3,1.4-1.3s1.4,0.6,1.4,1.3S29.7,15.8,28.9,15.8z M28.9,13.4
				c-0.6,0-1.1,0.5-1.1,1c0,0.6,0.5,1,1.1,1s1.1-0.5,1.1-1C30,13.9,29.5,13.4,28.9,13.4z"/>
		</g>
		<g>
			<g>
				<path fill="#9A9A9A" d="M29.4,14.6c0.1,0,0.2,0.1,0.1,0.2s-0.1,0.1-0.2,0l-0.2-0.1c-0.1,0-0.2,0-0.3,0.1L28.8,15
					c0,0.1-0.1,0.2-0.2,0.1c-0.1,0-0.1-0.1,0-0.2l0.1-0.2c0-0.1,0-0.2-0.1-0.3l-0.2-0.1c-0.1,0-0.2-0.1-0.1-0.2c0-0.1,0.1-0.1,0.2,0
					l0.2,0.1c0.1,0,0.2,0,0.3-0.1L29,14c0-0.1,0.1-0.2,0.2-0.1c0.1,0,0.1,0.1,0,0.2l-0.1,0.2c0,0.1,0,0.2,0.1,0.3L29.4,14.6z"/>
			</g>
		</g>
	</g>
</g>
</svg>
