<?xml version="1.0" encoding="utf-8"?>
<!-- Generator: Adobe Illustrator 18.1.0, SVG Export Plug-In . SVG Version: 6.00 Build 0)  -->
<!DOCTYPE svg PUBLIC "-//W3C//DTD SVG 1.1//EN" "http://www.w3.org/Graphics/SVG/1.1/DTD/svg11.dtd">
<svg version="1.1" id="Layer_1" xmlns="http://www.w3.org/2000/svg" xmlns:xlink="http://www.w3.org/1999/xlink" x="0px" y="0px"
	 viewBox="0 0 58 152" enable-background="new 0 0 58 152" xml:space="preserve">
<g id="Kick">
	<g>
		<g>
			<rect x="1.1" y="14" fill="#C7C6C6" width="55.5" height="2.5"/>
		</g>
		<g>
			<path fill="#9A9A9A" d="M56.8,16.7H1v-2.8h55.7V16.7z M1.3,16.4h55.2v-2.3H1.3V16.4z"/>
		</g>
	</g>
	<g>
		<g>
			<path fill="#131313" d="M7.6,20.3c0,1.4-1.1,2.5-2.5,2.5H2.5c-1.4,0-2.5-1.1-2.5-2.5v-10c0-1.4,1.1-2.5,2.5-2.5H5
				c1.4,0,2.5,1.1,2.5,2.5V20.3z"/>
		</g>
	</g>
	<g>
		<g>
			<path fill="#131313" d="M58,20.3c0,1.4-1.1,2.5-2.5,2.5H53c-1.4,0-2.5-1.1-2.5-2.5v-10c0-1.4,1.1-2.5,2.5-2.5h2.5
				c1.4,0,2.5,1.1,2.5,2.5V20.3z"/>
		</g>
	</g>
	<g id="Kick_pedal_1_">
		<g>
			<g>
				<g>
					<path fill="#C7C6C6" d="M21.5,151.7c-5.9,0-10.7-4.6-11-10.5l-1.4-35.7c4.3-5.1,6.6-11.6,6.6-18.3c0-7.5-2.9-14.6-8.1-19.9
						L6.5,38.8c-0.1-1.4,0.1-2.7,0.6-4c3.3-9.1,12-15.2,21.8-15.2c10.7,0,19.9,7.2,22.5,17.5l0,0l-1.2,30.3
						c-5.3,5.4-8.2,12.5-8.2,20c0,6.7,2.4,13.2,6.7,18.3l-1.4,35.6c-0.2,5.9-5,10.5-10.9,10.5H21.5z"/>
				</g>
			</g>
			<g>
				<g>
					<g>
						<path fill="#9A9A9A" d="M28.9,19.8c10.5,0,19.7,7.1,22.2,17.3l-1.2,30.2c-5.3,5.4-8.2,12.6-8.2,20.1c0,6.7,2.4,13.2,6.7,18.4
							L47,141.3c-0.2,5.7-4.9,10.2-10.7,10.2H21.5c-5.8,0-10.5-4.5-10.7-10.2l-1.4-35.6C13.6,100.6,16,94,16,87.4
							c0-7.5-2.9-14.6-8.1-20L6.7,38.8c-0.1-1.4,0.1-2.7,0.6-3.9C10.6,25.9,19.2,19.8,28.9,19.8 M28.9,19.3
							c-10.1,0-18.8,6.4-22,15.4c-0.5,1.3-0.7,2.7-0.6,4.1l1.1,28.7c5,5.1,8.1,12.1,8.1,19.8c0,6.9-2.5,13.3-6.6,18.2l1.4,35.8
							c0.2,6,5.2,10.7,11.2,10.7h14.9c6,0,11-4.7,11.2-10.7l1.4-35.7c-4.2-4.9-6.7-11.3-6.7-18.2c0-7.7,3.1-14.8,8.2-19.9L51.6,37v0
							c0,0,0,0,0,0C49.1,26.8,39.9,19.3,28.9,19.3L28.9,19.3z"/>
					</g>
				</g>
			</g>
		</g>
		<g>
			<g>
				<path fill="#CDCCCC" d="M50.9,38.5L50.9,38.5C50.9,38.5,50.9,38.5,50.9,38.5L50.9,38.5z"/>
			</g>
		</g>
		<g>
			<g>
				<g>
					<polygon fill="#888888" points="28.9,117.5 28.9,120 39,117.5 39,115 					"/>
				</g>
			</g>
		</g>
		<g>
			<g>
				<g>
					<polygon fill="#9A9A9A" points="18.8,115 18.8,117.5 28.9,120 28.9,117.5 					"/>
				</g>
			</g>
		</g>
		<g>
			<g>
				<g>
					<polygon fill="#888888" points="28.9,125 28.9,122.5 39,120 39,122.5 					"/>
				</g>
			</g>
		</g>
		<g>
			<g>
				<g>
					<polygon fill="#9A9A9A" points="18.8,122.5 18.8,120 28.9,122.5 28.9,125 					"/>
				</g>
			</g>
		</g>
		<g>
			<g>
				<polygon fill="#888888" points="39,112.4 28.9,115 28.9,109.9 				"/>
			</g>
		</g>
		<g>
			<g>
				<polygon fill="#9A9A9A" points="28.9,109.9 28.9,115 18.8,112.4 				"/>
			</g>
		</g>
		<g>
			<g>
				<path fill="none" stroke="#565656" stroke-miterlimit="10" d="M51.1,39.8"/>
			</g>
		</g>
		<g>
			<g>
				<polygon fill="#888888" points="48,58.4 47.8,63.4 28.9,58.3 28.9,53.3 				"/>
			</g>
		</g>
		<g>
			<g>
				<polygon fill="#888888" points="48.4,48.4 48.2,53.4 28.9,48.3 28.9,43.3 				"/>
			</g>
		</g>
		<g>
			<g>
				<polygon fill="#888888" points="48.8,38.4 48.6,43.5 28.9,38.3 28.9,33.3 				"/>
			</g>
		</g>
		<g>
			<g>
				<polygon fill="#9A9A9A" points="28.9,53.3 28.9,58.3 10,63.4 9.8,58.4 				"/>
			</g>
		</g>
		<g>
			<g>
				<polygon fill="#9A9A9A" points="28.9,43.3 28.9,48.3 9.6,53.4 9.4,48.5 				"/>
			</g>
		</g>
		<g>
			<g>
				<polygon fill="#9A9A9A" points="28.9,33.3 28.9,38.3 9.2,43.5 9,38.5 				"/>
			</g>
		</g>
		<g>
			<g>
				<path fill="none" stroke="#131313" stroke-miterlimit="10" d="M49,36.2"/>
			</g>
		</g>
		<g>
			<g>
				<path fill="none" stroke="#131313" stroke-miterlimit="10" d="M47.8,64.9"/>
			</g>
		</g>
		<g>
			<g>
				<line fill="none" x1="10" y1="134.4" x2="47.8" y2="134.4"/>
			</g>
		</g>
		<g>
			<g>
				<polyline fill="#C7C6C6" points="10.3,134.4 18.8,134.4 18.8,139.5 39,139.5 39,134.4 47.5,134.4 				"/>
			</g>
			<g>
				<polygon fill="#9A9A9A" points="39.5,140 18.3,140 18.3,134.9 10.3,134.9 10.3,133.9 19.3,133.9 19.3,139 38.5,139 38.5,133.9 
					47.5,133.9 47.5,134.9 39.5,134.9 				"/>
			</g>
		</g>
	</g>
	<g id="Kick_knob">
		<g>
			<g>
				<ellipse fill="#FFFFFF" cx="28.9" cy="15.3" rx="15.1" ry="15"/>
			</g>
			<g>
				<path fill="#9A9A9A" d="M28.9,30.6c-8.5,0-15.4-6.9-15.4-15.3C13.5,6.9,20.4,0,28.9,0s15.4,6.9,15.4,15.3
					C44.3,23.7,37.4,30.6,28.9,30.6z M28.9,0.5C20.7,0.5,14,7.1,14,15.3s6.7,14.8,14.9,14.8s14.9-6.6,14.9-14.8S37.1,0.5,28.9,0.5z"
					/>
			</g>
		</g>
		<g>
			<g>
				<ellipse fill="#C7C6C6" cx="28.9" cy="15.3" rx="5" ry="5"/>
			</g>
			<g>
				<path fill="#9A9A9A" d="M28.9,20.4c-2.9,0-5.2-2.3-5.2-5.1s2.3-5.1,5.2-5.1s5.2,2.3,5.2,5.1S31.7,20.4,28.9,20.4z M28.9,10.4
					c-2.7,0-4.9,2.2-4.9,4.9s2.2,4.9,4.9,4.9s4.9-2.2,4.9-4.9S31.6,10.4,28.9,10.4z"/>
			</g>
		</g>
		<g>
			<g>
				<ellipse fill="#DEDEDD" cx="28.9" cy="15.3" rx="2.5" ry="2.5"/>
			</g>
			<g>
				<path fill="#ABABAB" d="M28.9,17.9c-1.4,0-2.6-1.2-2.6-2.6s1.2-2.6,2.6-2.6s2.6,1.2,2.6,2.6S30.3,17.9,28.9,17.9z M28.9,12.8
					c-1.4,0-2.5,1.1-2.5,2.4s1.1,2.4,2.5,2.4s2.5-1.1,2.5-2.4S30.2,12.8,28.9,12.8z"/>
			</g>
		</g>
		<g>
			<g>
				<ellipse fill="#F1F0F0" cx="28.9" cy="15.3" rx="1.3" ry="1.3"/>
			</g>
			<g>
				<path fill="#9A9A9A" d="M28.9,16.6c-0.7,0-1.3-0.6-1.3-1.3c0-0.7,0.6-1.3,1.3-1.3s1.3,0.6,1.3,1.3C30.2,16,29.6,16.6,28.9,16.6z
					 M28.9,14.1c-0.7,0-1.2,0.5-1.2,1.2c0,0.7,0.5,1.2,1.2,1.2s1.2-0.5,1.2-1.2C30.1,14.6,29.5,14.1,28.9,14.1z"/>
			</g>
		</g>
		<g>
			<g>
				<g>
					<path fill="#9A9A9A" d="M29.4,15.4c0.1,0,0.2,0.1,0.1,0.2s-0.1,0.1-0.2,0l-0.2-0.1c-0.1,0-0.2,0-0.3,0.1l-0.1,0.2
						c0,0.1-0.1,0.2-0.2,0.1c-0.1,0-0.1-0.1,0-0.2l0.1-0.2c0-0.1,0-0.2-0.1-0.3l-0.2-0.1c-0.1,0-0.2-0.1-0.1-0.2
						c0-0.1,0.1-0.1,0.2,0l0.2,0.1c0.1,0,0.2,0,0.3-0.1l0.1-0.2c0-0.1,0.1-0.2,0.2-0.1c0.1,0,0.1,0.1,0,0.2L29.1,15
						c0,0.1,0,0.2,0.1,0.3L29.4,15.4z"/>
				</g>
			</g>
		</g>
	</g>
</g>
</svg>
