<?xml version="1.0" encoding="utf-8"?>
<!-- Generator: Adobe Illustrator 18.1.0, SVG Export Plug-In . SVG Version: 6.00 Build 0)  -->
<!DOCTYPE svg PUBLIC "-//W3C//DTD SVG 1.1//EN" "http://www.w3.org/Graphics/SVG/1.1/DTD/svg11.dtd">
<svg version="1.1" id="Layer_1" xmlns="http://www.w3.org/2000/svg" xmlns:xlink="http://www.w3.org/1999/xlink" x="0px" y="0px"
	 viewBox="0 0 240 240" enable-background="new 0 0 240 240" xml:space="preserve">
<g id="Virvel_beat">
	<g>
		<path fill="#C6C6C6" d="M129.1,4.5c0,2.5-3.3,4.5-7.2,4.5h-3.6c-4,0-7.2-2-7.2-4.5c0-2.5,3.3-4.5,7.2-4.5h3.6
			C125.8,0,129.1,2,129.1,4.5z"/>
		<path fill="none" stroke="#9A9A9A" stroke-width="0.5" stroke-miterlimit="10" d="M129.1,4.5c0,2.5-3.3,4.5-7.2,4.5h-3.6
			c-4,0-7.2-2-7.2-4.5c0-2.5,3.3-4.5,7.2-4.5h3.6C125.8,0,129.1,2,129.1,4.5z"/>
	</g>
	<g>
		<path fill="#C6C6C6" d="M129.1,235.5c0,2.5-3.3,4.5-7.2,4.5h-3.6c-4,0-7.2-2-7.2-4.5c0-2.5,3.3-4.5,7.2-4.5h3.6
			C125.8,230.9,129.1,233,129.1,235.5z"/>
		<path fill="none" stroke="#9A9A9A" stroke-width="0.5" stroke-miterlimit="10" d="M129.1,235.5c0,2.5-3.3,4.5-7.2,4.5h-3.6
			c-4,0-7.2-2-7.2-4.5c0-2.5,3.3-4.5,7.2-4.5h3.6C125.8,230.9,129.1,233,129.1,235.5z"/>
	</g>
	<g>
		<path fill="#C6C6C6" d="M44.8,31.9c1.8,1.8,0.9,5.5-1.9,8.3l-2.6,2.6c-2.8,2.8-6.6,3.7-8.3,1.9c-1.8-1.8-0.9-5.5,1.9-8.3l2.6-2.6
			C39.2,31,43,30.2,44.8,31.9z"/>
		<path fill="none" stroke="#9A9A9A" stroke-width="0.5" stroke-miterlimit="10" d="M44.8,31.9c1.8,1.8,0.9,5.5-1.9,8.3l-2.6,2.6
			c-2.8,2.8-6.6,3.7-8.3,1.9c-1.8-1.8-0.9-5.5,1.9-8.3l2.6-2.6C39.2,31,43,30.2,44.8,31.9z"/>
	</g>
	<g>
		<path fill="#C6C6C6" d="M208.1,195.2c1.8,1.8,0.9,5.5-1.9,8.3l-2.6,2.6c-2.8,2.8-6.6,3.7-8.3,1.9s-0.9-5.5,1.9-8.3l2.6-2.6
			C202.5,194.3,206.3,193.5,208.1,195.2z"/>
		<path fill="none" stroke="#9A9A9A" stroke-width="0.5" stroke-miterlimit="10" d="M208.1,195.2c1.8,1.8,0.9,5.5-1.9,8.3l-2.6,2.6
			c-2.8,2.8-6.6,3.7-8.3,1.9s-0.9-5.5,1.9-8.3l2.6-2.6C202.5,194.3,206.3,193.5,208.1,195.2z"/>
	</g>
	<g>
		<path fill="#C6C6C6" d="M4.5,110.9c2.5,0,4.5,3.3,4.5,7.2v3.6c0,4-2,7.2-4.5,7.2c-2.5,0-4.5-3.3-4.5-7.2v-3.6
			C0,114.2,2,110.9,4.5,110.9z"/>
		<path fill="none" stroke="#9A9A9A" stroke-width="0.5" stroke-miterlimit="10" d="M4.5,110.9c2.5,0,4.5,3.3,4.5,7.2v3.6
			c0,4-2,7.2-4.5,7.2c-2.5,0-4.5-3.3-4.5-7.2v-3.6C0,114.2,2,110.9,4.5,110.9z"/>
	</g>
	<g>
		<path fill="#C6C6C6" d="M235.5,110.9c2.5,0,4.5,3.3,4.5,7.2v3.6c0,4-2,7.2-4.5,7.2c-2.5,0-4.5-3.3-4.5-7.2v-3.6
			C230.9,114.2,233,110.9,235.5,110.9z"/>
		<path fill="none" stroke="#9A9A9A" stroke-width="0.5" stroke-miterlimit="10" d="M235.5,110.9c2.5,0,4.5,3.3,4.5,7.2v3.6
			c0,4-2,7.2-4.5,7.2c-2.5,0-4.5-3.3-4.5-7.2v-3.6C230.9,114.2,233,110.9,235.5,110.9z"/>
	</g>
	<g>
		<path fill="#C6C6C6" d="M31.9,195.2c1.8-1.8,5.5-0.9,8.3,1.9l2.6,2.6c2.8,2.8,3.7,6.6,1.9,8.3c-1.8,1.8-5.5,0.9-8.3-1.9l-2.6-2.6
			C31,200.8,30.2,197,31.9,195.2z"/>
		<path fill="none" stroke="#9A9A9A" stroke-width="0.5" stroke-miterlimit="10" d="M31.9,195.2c1.8-1.8,5.5-0.9,8.3,1.9l2.6,2.6
			c2.8,2.8,3.7,6.6,1.9,8.3c-1.8,1.8-5.5,0.9-8.3-1.9l-2.6-2.6C31,200.8,30.2,197,31.9,195.2z"/>
	</g>
	<g>
		<path fill="#C6C6C6" d="M195.2,31.9c1.8-1.8,5.5-0.9,8.3,1.9l2.6,2.6c2.8,2.8,3.7,6.6,1.9,8.3c-1.8,1.8-5.5,0.9-8.3-1.9l-2.6-2.6
			C194.3,37.5,193.5,33.7,195.2,31.9z"/>
		<path fill="none" stroke="#9A9A9A" stroke-width="0.5" stroke-miterlimit="10" d="M195.2,31.9c1.8-1.8,5.5-0.9,8.3,1.9l2.6,2.6
			c2.8,2.8,3.7,6.6,1.9,8.3c-1.8,1.8-5.5,0.9-8.3-1.9l-2.6-2.6C194.3,37.5,193.5,33.7,195.2,31.9z"/>
	</g>
	
		<radialGradient id="SVGID_1_" cx="120.6166" cy="119.7242" r="112.2357" gradientTransform="matrix(0.9969 0 0 0.9969 -0.2439 0.6458)" gradientUnits="userSpaceOnUse">
		<stop  offset="0.1509" style="stop-color:#D5D5D4"/>
		<stop  offset="0.834" style="stop-color:#F3F3F3"/>
		<stop  offset="0.9759" style="stop-color:#F3F3F3"/>
		<stop  offset="1" style="stop-color:#808080"/>
	</radialGradient>
	<circle fill="url(#SVGID_1_)" cx="120" cy="120" r="111.9"/>
	<path fill="#C7C6C6" d="M120,8.1c61.8,0,111.9,50.1,111.9,111.9S181.8,231.9,120,231.9C58.2,231.9,8.1,181.8,8.1,120
		S58.2,8.1,120,8.1 M120,3.6c-15.7,0-30.9,3.1-45.3,9.1c-13.9,5.9-26.3,14.3-37,24.9C27,48.4,18.6,60.8,12.8,74.7
		C6.7,89.1,3.6,104.3,3.6,120s3.1,30.9,9.1,45.3c5.9,13.9,14.3,26.3,24.9,37c10.7,10.7,23.1,19.1,37,24.9
		c14.3,6.1,29.6,9.1,45.3,9.1c15.7,0,30.9-3.1,45.3-9.1c13.9-5.9,26.3-14.3,37-24.9c10.7-10.7,19.1-23.1,24.9-37
		c6.1-14.3,9.1-29.6,9.1-45.3s-3.1-30.9-9.1-45.3c-5.9-13.9-14.3-26.3-24.9-37c-10.7-10.7-23.1-19.1-37-24.9
		C150.9,6.7,135.7,3.6,120,3.6L120,3.6z"/>
	<path fill="#9A9A9A" d="M120,3.9c15.7,0,30.9,3.1,45.2,9.1c13.8,5.8,26.2,14.2,36.9,24.9c10.7,10.7,19,23.1,24.9,36.9
		c6.1,14.3,9.1,29.5,9.1,45.2c0,15.7-3.1,30.9-9.1,45.2c-5.8,13.8-14.2,26.2-24.9,36.9c-10.7,10.7-23.1,19-36.9,24.9
		c-14.3,6.1-29.5,9.1-45.2,9.1c-15.7,0-30.9-3.1-45.2-9.1c-13.8-5.8-26.2-14.2-36.9-24.9c-10.7-10.7-19-23.1-24.9-36.9
		C7,150.9,3.9,135.7,3.9,120S7,89.1,13,74.8C18.9,61,27.2,48.6,37.9,37.9C48.6,27.2,61,18.9,74.8,13C89.1,7,104.3,3.9,120,3.9
		 M120,3.6c-15.7,0-30.9,3.1-45.3,9.1c-13.9,5.9-26.3,14.3-37,24.9C27,48.4,18.6,60.8,12.8,74.7C6.7,89.1,3.6,104.3,3.6,120
		c0,15.7,3.1,30.9,9.1,45.3c5.9,13.9,14.3,26.3,24.9,37c10.7,10.7,23.1,19.1,37,24.9c14.3,6.1,29.6,9.1,45.3,9.1
		c15.7,0,30.9-3.1,45.3-9.1c13.9-5.9,26.3-14.3,37-24.9c10.7-10.7,19.1-23.1,24.9-37c6.1-14.3,9.1-29.6,9.1-45.3
		c0-15.7-3.1-30.9-9.1-45.3c-5.9-13.9-14.3-26.3-24.9-37c-10.7-10.7-23.1-19.1-37-24.9C150.9,6.7,135.7,3.6,120,3.6L120,3.6z"/>
	<circle fill="none" stroke="#CDCCCC" stroke-width="3" stroke-miterlimit="10" cx="120" cy="120" r="95.7"/>
</g>
</svg>
