<?xml version="1.0" encoding="utf-8"?>
<!-- Generator: Adobe Illustrator 18.1.0, SVG Export Plug-In . SVG Version: 6.00 Build 0)  -->
<!DOCTYPE svg PUBLIC "-//W3C//DTD SVG 1.1//EN" "http://www.w3.org/Graphics/SVG/1.1/DTD/svg11.dtd">
<svg version="1.1" id="Layer_1" xmlns="http://www.w3.org/2000/svg" xmlns:xlink="http://www.w3.org/1999/xlink" x="0px" y="0px"
	 viewBox="0 0 190 190" enable-background="new 0 0 190 190" xml:space="preserve">
<g id="Puka_nr_1_beat">
	<g>
		<path fill="#C6C6C6" d="M72.6,3.2c0.6,1.9-1.4,4.3-4.5,5.4l-2.8,0.9c-3.1,1-6.1,0.3-6.8-1.7c-0.6-1.9,1.4-4.3,4.5-5.4l2.8-0.9
			C68.9,0.5,71.9,1.2,72.6,3.2z"/>
		<path fill="none" stroke="#9A9A9A" stroke-width="0.5" stroke-miterlimit="10" d="M72.6,3.2c0.6,1.9-1.4,4.3-4.5,5.4l-2.8,0.9
			c-3.1,1-6.1,0.3-6.8-1.7c-0.6-1.9,1.4-4.3,4.5-5.4l2.8-0.9C68.9,0.5,71.9,1.2,72.6,3.2z"/>
	</g>
	<g>
		<path fill="#C6C6C6" d="M131.5,182.2c0.6,1.9-1.4,4.3-4.5,5.4l-2.8,0.9c-3.1,1-6.1,0.3-6.8-1.7c-0.6-1.9,1.4-4.3,4.5-5.4l2.8-0.9
			C127.8,179.5,130.9,180.3,131.5,182.2z"/>
		<path fill="none" stroke="#9A9A9A" stroke-width="0.5" stroke-miterlimit="10" d="M131.5,182.2c0.6,1.9-1.4,4.3-4.5,5.4l-2.8,0.9
			c-3.1,1-6.1,0.3-6.8-1.7c-0.6-1.9,1.4-4.3,4.5-5.4l2.8-0.9C127.8,179.5,130.9,180.3,131.5,182.2z"/>
	</g>
	<g>
		<path fill="#C6C6C6" d="M14.2,45.9c1.8,0.9,2.1,4,0.6,6.9l-1.3,2.6c-1.5,2.9-4.2,4.5-6,3.6c-1.8-0.9-2.1-4-0.6-6.9l1.3-2.6
			C9.7,46.6,12.4,45,14.2,45.9z"/>
		<path fill="none" stroke="#9A9A9A" stroke-width="0.5" stroke-miterlimit="10" d="M14.2,45.9c1.8,0.9,2.1,4,0.6,6.9l-1.3,2.6
			c-1.5,2.9-4.2,4.5-6,3.6c-1.8-0.9-2.1-4-0.6-6.9l1.3-2.6C9.7,46.6,12.4,45,14.2,45.9z"/>
	</g>
	<g>
		<path fill="#C6C6C6" d="M182.5,130.9c1.8,0.9,2.1,4,0.6,6.9l-1.3,2.6c-1.5,2.9-4.2,4.5-6,3.6c-1.8-0.9-2.1-4-0.6-6.9l1.3-2.6
			C178,131.6,180.6,129.9,182.5,130.9z"/>
		<path fill="none" stroke="#9A9A9A" stroke-width="0.5" stroke-miterlimit="10" d="M182.5,130.9c1.8,0.9,2.1,4,0.6,6.9l-1.3,2.6
			c-1.5,2.9-4.2,4.5-6,3.6c-1.8-0.9-2.1-4-0.6-6.9l1.3-2.6C178,131.6,180.6,129.9,182.5,130.9z"/>
	</g>
	<g>
		<path fill="#C6C6C6" d="M3.2,117.4c1.9-0.6,4.3,1.4,5.4,4.5l0.9,2.8c1,3.1,0.3,6.1-1.7,6.8c-1.9,0.6-4.3-1.4-5.4-4.5l-0.9-2.8
			C0.5,121.1,1.2,118.1,3.2,117.4z"/>
		<path fill="none" stroke="#9A9A9A" stroke-width="0.5" stroke-miterlimit="10" d="M3.2,117.4c1.9-0.6,4.3,1.4,5.4,4.5l0.9,2.8
			c1,3.1,0.3,6.1-1.7,6.8c-1.9,0.6-4.3-1.4-5.4-4.5l-0.9-2.8C0.5,121.1,1.2,118.1,3.2,117.4z"/>
	</g>
	<g>
		<path fill="#C6C6C6" d="M182.2,58.5c1.9-0.6,4.3,1.4,5.4,4.5l0.9,2.8c1,3.1,0.3,6.1-1.7,6.8c-1.9,0.6-4.3-1.4-5.4-4.5l-0.9-2.8
			C179.5,62.2,180.3,59.1,182.2,58.5z"/>
		<path fill="none" stroke="#9A9A9A" stroke-width="0.5" stroke-miterlimit="10" d="M182.2,58.5c1.9-0.6,4.3,1.4,5.4,4.5l0.9,2.8
			c1,3.1,0.3,6.1-1.7,6.8c-1.9,0.6-4.3-1.4-5.4-4.5l-0.9-2.8C179.5,62.2,180.3,59.1,182.2,58.5z"/>
	</g>
	<g>
		<path fill="#C6C6C6" d="M45.9,175.8c0.9-1.8,4-2.1,6.9-0.6l2.6,1.3c2.9,1.5,4.5,4.2,3.6,6c-0.9,1.8-4,2.1-6.9,0.6l-2.6-1.3
			C46.6,180.3,45,177.6,45.9,175.8z"/>
		<path fill="none" stroke="#9A9A9A" stroke-width="0.5" stroke-miterlimit="10" d="M45.9,175.8c0.9-1.8,4-2.1,6.9-0.6l2.6,1.3
			c2.9,1.5,4.5,4.2,3.6,6c-0.9,1.8-4,2.1-6.9,0.6l-2.6-1.3C46.6,180.3,45,177.6,45.9,175.8z"/>
	</g>
	<g>
		<path fill="#C6C6C6" d="M130.9,7.5c0.9-1.8,4-2.1,6.9-0.6l2.6,1.3c2.9,1.5,4.5,4.2,3.6,6c-0.9,1.8-4,2.1-6.9,0.6l-2.6-1.3
			C131.6,12,129.9,9.4,130.9,7.5z"/>
		<path fill="none" stroke="#9A9A9A" stroke-width="0.5" stroke-miterlimit="10" d="M130.9,7.5c0.9-1.8,4-2.1,6.9-0.6l2.6,1.3
			c2.9,1.5,4.5,4.2,3.6,6c-0.9,1.8-4,2.1-6.9,0.6l-2.6-1.3C131.6,12,129.9,9.4,130.9,7.5z"/>
	</g>
	
		<radialGradient id="SVGID_1_" cx="49.2816" cy="132.0852" r="91.6196" gradientTransform="matrix(0.9468 -0.3116 0.3116 0.9468 7.1873 -14.7004)" gradientUnits="userSpaceOnUse">
		<stop  offset="0.1509" style="stop-color:#D5D5D4"/>
		<stop  offset="0.834" style="stop-color:#F3F3F3"/>
		<stop  offset="0.9759" style="stop-color:#F3F3F3"/>
		<stop  offset="1" style="stop-color:#808080"/>
	</radialGradient>
	<circle fill="url(#SVGID_1_)" cx="95" cy="95" r="91.3"/>
	<path fill="#C7C6C6" d="M66.5,8.3C114.4-7.5,166,18.5,181.7,66.5c15.8,47.9-10.3,99.5-58.2,115.3C75.6,197.5,24,171.5,8.3,123.5
		C-7.5,75.6,18.5,24,66.5,8.3 M65.3,4.8c-12.2,4-23.2,10.3-32.8,18.6c-9.2,8.1-16.8,17.8-22.3,28.8c-5.6,11-8.9,22.8-9.9,35
		c-1,12.7,0.5,25.3,4.5,37.4c4,12.2,10.3,23.2,18.6,32.8c8.1,9.2,17.8,16.8,28.8,22.3c11,5.6,22.8,8.9,35,9.9
		c12.7,1,25.3-0.5,37.4-4.5c12.2-4,23.2-10.3,32.8-18.6c9.2-8.1,16.8-17.8,22.3-28.8c5.6-11,8.9-22.8,9.9-35
		c1-12.7-0.5-25.3-4.5-37.4c-4-12.2-10.3-23.2-18.6-32.8c-8.1-9.2-17.8-16.8-28.8-22.3c-11-5.6-22.8-8.9-35-9.9
		C90.1-0.7,77.5,0.8,65.3,4.8L65.3,4.8z"/>
	<path fill="#9A9A9A" d="M65.4,5c12.1-4,24.7-5.5,37.4-4.5c12.2,1,24,4.3,34.9,9.9c11,5.5,20.6,13,28.7,22.3
		c8.3,9.6,14.6,20.6,18.6,32.7c4,12.1,5.5,24.7,4.5,37.4c-1,12.2-4.3,24-9.9,34.9c-5.5,11-13,20.6-22.3,28.7
		c-9.6,8.3-20.6,14.6-32.7,18.6c-12.1,4-24.7,5.5-37.4,4.5c-12.2-1-24-4.3-34.9-9.9c-11-5.5-20.6-13-28.7-22.3
		C15.3,147.8,9,136.8,5,124.6c-4-12.1-5.5-24.7-4.5-37.4c1-12.2,4.3-24,9.9-34.9c5.5-11,13-20.6,22.3-28.7C42.2,15.3,53.2,9,65.4,5
		 M65.3,4.8c-12.2,4-23.2,10.3-32.8,18.6c-9.2,8.1-16.8,17.8-22.3,28.8c-5.6,11-8.9,22.8-9.9,35c-1,12.7,0.5,25.3,4.5,37.4
		c4,12.2,10.3,23.2,18.6,32.8c8.1,9.2,17.8,16.8,28.8,22.3c11,5.6,22.8,8.9,35,9.9c12.7,1,25.3-0.5,37.4-4.5
		c12.2-4,23.2-10.3,32.8-18.6c9.2-8.1,16.8-17.8,22.3-28.8c5.6-11,8.9-22.8,9.9-35c1-12.7-0.5-25.3-4.5-37.4
		c-4-12.2-10.3-23.2-18.6-32.8c-8.1-9.2-17.8-16.8-28.8-22.3c-11-5.6-22.8-8.9-35-9.9C90.1-0.7,77.5,0.8,65.3,4.8L65.3,4.8z"/>
	<circle fill="none" stroke="#CDCCCC" stroke-width="3" stroke-miterlimit="10" cx="95" cy="95" r="78.1"/>
</g>
</svg>
