<?xml version="1.0" encoding="utf-8"?>
<!-- Generator: Adobe Illustrator 18.1.0, SVG Export Plug-In . SVG Version: 6.00 Build 0)  -->
<!DOCTYPE svg PUBLIC "-//W3C//DTD SVG 1.1//EN" "http://www.w3.org/Graphics/SVG/1.1/DTD/svg11.dtd">
<svg version="1.1" id="Layer_1" xmlns="http://www.w3.org/2000/svg" xmlns:xlink="http://www.w3.org/1999/xlink" x="0px" y="0px"
	 viewBox="0 0 190 190" enable-background="new 0 0 190 190" xml:space="preserve">
<g id="Puka_nr_2_beat">
	<g>
		<path fill="#C6C6C6" d="M131.7,7.9c-0.6,1.9-3.7,2.7-6.8,1.6l-2.8-0.9c-3.1-1-5.1-3.4-4.4-5.4c0.6-1.9,3.7-2.7,6.8-1.6l2.8,0.9
			C130.4,3.5,132.4,6,131.7,7.9z"/>
		<path fill="none" stroke="#9A9A9A" stroke-width="0.5" stroke-miterlimit="10" d="M131.7,7.9c-0.6,1.9-3.7,2.7-6.8,1.6l-2.8-0.9
			c-3.1-1-5.1-3.4-4.4-5.4c0.6-1.9,3.7-2.7,6.8-1.6l2.8,0.9C130.4,3.5,132.4,6,131.7,7.9z"/>
	</g>
	<g>
		<path fill="#C6C6C6" d="M72.3,186.8c-0.6,1.9-3.7,2.7-6.8,1.6l-2.8-0.9c-3.1-1-5.1-3.4-4.4-5.4s3.7-2.7,6.8-1.6l2.8,0.9
			C70.9,182.4,72.9,184.8,72.3,186.8z"/>
		<path fill="none" stroke="#9A9A9A" stroke-width="0.5" stroke-miterlimit="10" d="M72.3,186.8c-0.6,1.9-3.7,2.7-6.8,1.6l-2.8-0.9
			c-3.1-1-5.1-3.4-4.4-5.4s3.7-2.7,6.8-1.6l2.8,0.9C70.9,182.4,72.9,184.8,72.3,186.8z"/>
	</g>
	<g>
		<path fill="#C6C6C6" d="M59.4,7.4c0.9,1.8-0.7,4.5-3.6,6l-2.6,1.3c-2.9,1.5-6,1.2-6.9-0.7c-0.9-1.8,0.7-4.5,3.6-6l2.6-1.3
			C55.3,5.3,58.5,5.6,59.4,7.4z"/>
		<path fill="none" stroke="#9A9A9A" stroke-width="0.5" stroke-miterlimit="10" d="M59.4,7.4c0.9,1.8-0.7,4.5-3.6,6l-2.6,1.3
			c-2.9,1.5-6,1.2-6.9-0.7c-0.9-1.8,0.7-4.5,3.6-6l2.6-1.3C55.3,5.3,58.5,5.6,59.4,7.4z"/>
	</g>
	<g>
		<path fill="#C6C6C6" d="M143.8,175.9c0.9,1.8-0.7,4.5-3.6,6l-2.6,1.3c-2.9,1.5-6,1.2-6.9-0.7c-0.9-1.8,0.7-4.5,3.6-6l2.6-1.3
			C139.8,173.8,142.9,174.1,143.8,175.9z"/>
		<path fill="none" stroke="#9A9A9A" stroke-width="0.5" stroke-miterlimit="10" d="M143.8,175.9c0.9,1.8-0.7,4.5-3.6,6l-2.6,1.3
			c-2.9,1.5-6,1.2-6.9-0.7c-0.9-1.8,0.7-4.5,3.6-6l2.6-1.3C139.8,173.8,142.9,174.1,143.8,175.9z"/>
	</g>
	<g>
		<path fill="#C6C6C6" d="M7.9,58.3c1.9,0.6,2.7,3.7,1.6,6.8l-0.9,2.8c-1,3.1-3.4,5.1-5.4,4.4c-1.9-0.6-2.7-3.7-1.6-6.8l0.9-2.8
			C3.5,59.6,6,57.6,7.9,58.3z"/>
		<path fill="none" stroke="#9A9A9A" stroke-width="0.5" stroke-miterlimit="10" d="M7.9,58.3c1.9,0.6,2.7,3.7,1.6,6.8l-0.9,2.8
			c-1,3.1-3.4,5.1-5.4,4.4c-1.9-0.6-2.7-3.7-1.6-6.8l0.9-2.8C3.5,59.6,6,57.6,7.9,58.3z"/>
	</g>
	<g>
		<path fill="#C6C6C6" d="M186.8,117.7c1.9,0.6,2.7,3.7,1.6,6.8l-0.9,2.8c-1,3.1-3.4,5.1-5.4,4.4c-1.9-0.6-2.7-3.7-1.6-6.8l0.9-2.8
			C182.4,119.1,184.8,117.1,186.8,117.7z"/>
		<path fill="none" stroke="#9A9A9A" stroke-width="0.5" stroke-miterlimit="10" d="M186.8,117.7c1.9,0.6,2.7,3.7,1.6,6.8l-0.9,2.8
			c-1,3.1-3.4,5.1-5.4,4.4c-1.9-0.6-2.7-3.7-1.6-6.8l0.9-2.8C182.4,119.1,184.8,117.1,186.8,117.7z"/>
	</g>
	<g>
		<path fill="#C6C6C6" d="M7.4,130.6c1.8-0.9,4.5,0.7,6,3.6l1.3,2.6c1.5,2.9,1.2,6-0.7,6.9c-1.8,0.9-4.5-0.7-6-3.6l-1.3-2.6
			C5.3,134.7,5.6,131.5,7.4,130.6z"/>
		<path fill="none" stroke="#9A9A9A" stroke-width="0.5" stroke-miterlimit="10" d="M7.4,130.6c1.8-0.9,4.5,0.7,6,3.6l1.3,2.6
			c1.5,2.9,1.2,6-0.7,6.9c-1.8,0.9-4.5-0.7-6-3.6l-1.3-2.6C5.3,134.7,5.6,131.5,7.4,130.6z"/>
	</g>
	<g>
		<path fill="#C6C6C6" d="M175.9,46.2c1.8-0.9,4.5,0.7,6,3.6l1.3,2.6c1.5,2.9,1.2,6-0.7,6.9c-1.8,0.9-4.5-0.7-6-3.6l-1.3-2.6
			C173.8,50.2,174.1,47.1,175.9,46.2z"/>
		<path fill="none" stroke="#9A9A9A" stroke-width="0.5" stroke-miterlimit="10" d="M175.9,46.2c1.8-0.9,4.5,0.7,6,3.6l1.3,2.6
			c1.5,2.9,1.2,6-0.7,6.9c-1.8,0.9-4.5-0.7-6-3.6l-1.3-2.6C173.8,50.2,174.1,47.1,175.9,46.2z"/>
	</g>
	
		<radialGradient id="SVGID_1_" cx="147.933" cy="176.8655" r="91.6203" gradientTransform="matrix(0.9459 0.3143 -0.3143 0.9459 10.6556 -118.7835)" gradientUnits="userSpaceOnUse">
		<stop  offset="0.1509" style="stop-color:#D5D5D4"/>
		<stop  offset="0.834" style="stop-color:#F3F3F3"/>
		<stop  offset="0.9759" style="stop-color:#F3F3F3"/>
		<stop  offset="1" style="stop-color:#808080"/>
	</radialGradient>
	<circle fill="url(#SVGID_1_)" cx="95" cy="95" r="91.3"/>
	<path fill="#C7C6C6" d="M123.8,8.3c47.9,15.9,73.8,67.6,57.9,115.5c-15.9,47.9-67.6,73.8-115.5,57.9C18.3,165.8-7.6,114.1,8.3,66.2
		C24.2,18.3,75.9-7.6,123.8,8.3 M124.9,4.9c-12.2-4-24.8-5.6-37.4-4.6c-12.2,1-24,4.3-35.1,9.8c-11,5.5-20.7,13-28.8,22.2
		C15.2,41.9,8.9,52.9,4.9,65.1c-4,12.2-5.6,24.8-4.6,37.4c1,12.2,4.3,24,9.8,35.1s13,20.7,22.2,28.8c9.6,8.4,20.6,14.7,32.7,18.7
		c12.2,4,24.8,5.6,37.4,4.6c12.2-1,24-4.3,35.1-9.8c11-5.5,20.7-13,28.8-22.2c8.4-9.6,14.7-20.6,18.7-32.7c4-12.2,5.6-24.8,4.6-37.4
		c-1-12.2-4.3-24-9.8-35.1c-5.5-11-13-20.7-22.2-28.8C148.1,15.2,137.1,8.9,124.9,4.9L124.9,4.9z"/>
	<path fill="#9A9A9A" d="M124.9,5.1c12.1,4,23.1,10.3,32.6,18.7c9.2,8.1,16.7,17.8,22.2,28.8c5.5,11,8.8,22.8,9.8,35
		c1,12.6-0.5,25.2-4.6,37.3c-4,12.1-10.3,23.1-18.7,32.6c-8.1,9.2-17.8,16.7-28.8,22.2c-11,5.5-22.8,8.8-35,9.8
		c-12.6,1-25.2-0.5-37.3-4.6c-12.1-4-23.1-10.3-32.6-18.7c-9.2-8.1-16.7-17.8-22.2-28.8c-5.5-11-8.8-22.8-9.8-35
		c-1-12.6,0.5-25.2,4.6-37.3C9.1,53,15.4,42,23.8,32.5c8.1-9.2,17.8-16.7,28.8-22.2c11-5.5,22.8-8.8,35-9.8
		C100.2-0.5,112.7,1.1,124.9,5.1 M124.9,4.9c-12.2-4-24.8-5.6-37.4-4.6c-12.2,1-24,4.3-35.1,9.8c-11,5.5-20.7,13-28.8,22.2
		C15.2,41.9,8.9,52.9,4.9,65.1c-4,12.2-5.6,24.8-4.6,37.4c1,12.2,4.3,24,9.8,35.1c5.5,11,13,20.7,22.2,28.8
		c9.6,8.4,20.6,14.7,32.7,18.7c12.2,4,24.8,5.6,37.4,4.6c12.2-1,24-4.3,35.1-9.8c11-5.5,20.7-13,28.8-22.2
		c8.4-9.6,14.7-20.6,18.7-32.7c4-12.2,5.6-24.8,4.6-37.4c-1-12.2-4.3-24-9.8-35.1c-5.5-11-13-20.7-22.2-28.8
		C148.1,15.2,137.1,8.9,124.9,4.9L124.9,4.9z"/>
	<circle fill="none" stroke="#CDCCCC" stroke-width="3" stroke-miterlimit="10" cx="95" cy="95" r="78.1"/>
</g>
</svg>
