<?xml version="1.0" encoding="utf-8"?>
<!-- Generator: Adobe Illustrator 18.1.0, SVG Export Plug-In . SVG Version: 6.00 Build 0)  -->
<!DOCTYPE svg PUBLIC "-//W3C//DTD SVG 1.1//EN" "http://www.w3.org/Graphics/SVG/1.1/DTD/svg11.dtd">
<svg version="1.1" id="Layer_1" xmlns="http://www.w3.org/2000/svg" xmlns:xlink="http://www.w3.org/1999/xlink" x="0px" y="0px"
	 viewBox="0 0 262 262" enable-background="new 0 0 262 262" xml:space="preserve">
<g id="Golvpuka_beat">
	<g>
		<path fill="#C6C6C6" d="M18.9,64.5c2.5,1.2,3,5.5,1,9.6L18,77.7c-2,4-5.7,6.3-8.2,5.1c-2.5-1.2-3-5.5-1-9.6l1.8-3.7
			C12.7,65.6,16.4,63.3,18.9,64.5z"/>
		<path fill="none" stroke="#9A9A9A" stroke-width="0.5" stroke-miterlimit="10" d="M18.9,64.5c2.5,1.2,3,5.5,1,9.6L18,77.7
			c-2,4-5.7,6.3-8.2,5.1c-2.5-1.2-3-5.5-1-9.6l1.8-3.7C12.7,65.6,16.4,63.3,18.9,64.5z"/>
	</g>
	<g>
		<path fill="#C6C6C6" d="M252.1,179.2c2.5,1.2,3,5.5,1,9.6l-1.8,3.7c-2,4-5.7,6.3-8.2,5.1c-2.5-1.2-3-5.5-1-9.6l1.8-3.7
			C245.9,180.2,249.6,177.9,252.1,179.2z"/>
		<path fill="none" stroke="#9A9A9A" stroke-width="0.5" stroke-miterlimit="10" d="M252.1,179.2c2.5,1.2,3,5.5,1,9.6l-1.8,3.7
			c-2,4-5.7,6.3-8.2,5.1c-2.5-1.2-3-5.5-1-9.6l1.8-3.7C245.9,180.2,249.6,177.9,252.1,179.2z"/>
	</g>
	<g>
		<path fill="#C6C6C6" d="M4.7,163.3c2.7-0.9,6,1.8,7.5,6.1l1.3,3.9c1.4,4.2,0.5,8.5-2.2,9.4c-2.7,0.9-6-1.8-7.5-6.1l-1.3-3.9
			C1.1,168.4,2,164.2,4.7,163.3z"/>
		<path fill="none" stroke="#9A9A9A" stroke-width="0.5" stroke-miterlimit="10" d="M4.7,163.3c2.7-0.9,6,1.8,7.5,6.1l1.3,3.9
			c1.4,4.2,0.5,8.5-2.2,9.4c-2.7,0.9-6-1.8-7.5-6.1l-1.3-3.9C1.1,168.4,2,164.2,4.7,163.3z"/>
	</g>
	<g>
		<path fill="#C6C6C6" d="M250.7,79.4c2.7-0.9,6,1.8,7.5,6.1l1.3,3.9c1.4,4.2,0.5,8.5-2.2,9.4c-2.7,0.9-6-1.8-7.5-6.1l-1.3-3.9
			C247.1,84.5,248.1,80.3,250.7,79.4z"/>
		<path fill="none" stroke="#9A9A9A" stroke-width="0.5" stroke-miterlimit="10" d="M250.7,79.4c2.7-0.9,6,1.8,7.5,6.1l1.3,3.9
			c1.4,4.2,0.5,8.5-2.2,9.4c-2.7,0.9-6-1.8-7.5-6.1l-1.3-3.9C247.1,84.5,248.1,80.3,250.7,79.4z"/>
	</g>
	<g>
		<path fill="#C6C6C6" d="M64.5,243.1c1.2-2.5,5.5-3,9.6-1l3.7,1.8c4,2,6.3,5.7,5.1,8.2c-1.2,2.5-5.5,3-9.6,1l-3.7-1.8
			C65.6,249.3,63.3,245.6,64.5,243.1z"/>
		<path fill="none" stroke="#9A9A9A" stroke-width="0.5" stroke-miterlimit="10" d="M64.5,243.1c1.2-2.5,5.5-3,9.6-1l3.7,1.8
			c4,2,6.3,5.7,5.1,8.2c-1.2,2.5-5.5,3-9.6,1l-3.7-1.8C65.6,249.3,63.3,245.6,64.5,243.1z"/>
	</g>
	<g>
		<path fill="#C6C6C6" d="M179.2,9.9c1.2-2.5,5.5-3,9.6-1l3.7,1.8c4,2,6.3,5.7,5.1,8.2c-1.2,2.5-5.5,3-9.6,1l-3.7-1.8
			C180.2,16.1,177.9,12.4,179.2,9.9z"/>
		<path fill="none" stroke="#9A9A9A" stroke-width="0.5" stroke-miterlimit="10" d="M179.2,9.9c1.2-2.5,5.5-3,9.6-1l3.7,1.8
			c4,2,6.3,5.7,5.1,8.2c-1.2,2.5-5.5,3-9.6,1l-3.7-1.8C180.2,16.1,177.9,12.4,179.2,9.9z"/>
	</g>
	<g>
		<path fill="#C6C6C6" d="M163.3,257.3c-0.9-2.7,1.8-6,6.1-7.5l3.9-1.3c4.2-1.4,8.5-0.5,9.4,2.2c0.9,2.7-1.8,6-6.1,7.5l-3.9,1.3
			C168.4,260.9,164.2,260,163.3,257.3z"/>
		<path fill="none" stroke="#9A9A9A" stroke-width="0.5" stroke-miterlimit="10" d="M163.3,257.3c-0.9-2.7,1.8-6,6.1-7.5l3.9-1.3
			c4.2-1.4,8.5-0.5,9.4,2.2c0.9,2.7-1.8,6-6.1,7.5l-3.9,1.3C168.4,260.9,164.2,260,163.3,257.3z"/>
	</g>
	<g>
		<path fill="#C6C6C6" d="M79.4,11.3c-0.9-2.7,1.8-6,6.1-7.5l3.9-1.3c4.2-1.4,8.5-0.5,9.4,2.2c0.9,2.7-1.8,6-6.1,7.5l-3.9,1.3
			C84.5,14.9,80.3,13.9,79.4,11.3z"/>
		<path fill="none" stroke="#9A9A9A" stroke-width="0.5" stroke-miterlimit="10" d="M79.4,11.3c-0.9-2.7,1.8-6,6.1-7.5l3.9-1.3
			c4.2-1.4,8.5-0.5,9.4,2.2c0.9,2.7-1.8,6-6.1,7.5l-3.9,1.3C84.5,14.9,80.3,13.9,79.4,11.3z"/>
	</g>
	
		<radialGradient id="SVGID_1_" cx="730.1203" cy="-246.4519" r="125.9798" gradientTransform="matrix(0.441 -0.8971 0.8971 0.441 30.0748 894.6573)" gradientUnits="userSpaceOnUse">
		<stop  offset="0.1509" style="stop-color:#D5D5D4"/>
		<stop  offset="0.834" style="stop-color:#F3F3F3"/>
		<stop  offset="0.9759" style="stop-color:#F3F3F3"/>
		<stop  offset="1" style="stop-color:#808080"/>
	</radialGradient>
	<circle fill="url(#SVGID_1_)" cx="131" cy="131" r="125.9"/>
	<path fill="#C7C6C6" d="M18,75.4C48.7,13,124.1-12.7,186.6,18C249,48.7,274.7,124.1,244,186.6C213.3,249,137.9,274.7,75.4,244
		S-12.7,137.9,18,75.4 M13.5,73.2C5.7,89.1,1.2,106,0.2,123.5c-1,16.9,1.3,33.6,6.8,49.7c5.5,16.1,13.9,30.8,25,43.6
		c11.5,13.3,25.3,23.9,41.2,31.7c15.9,7.8,32.8,12.3,50.3,13.3c16.9,1,33.6-1.3,49.7-6.8c16.1-5.5,30.8-13.9,43.6-25
		c13.3-11.5,23.9-25.3,31.7-41.2c7.8-15.9,12.3-32.8,13.3-50.3c1-16.9-1.3-33.6-6.8-49.7c-5.5-16.1-13.9-30.8-25-43.6
		c-11.5-13.3-25.3-23.9-41.2-31.7C172.9,5.7,156,1.2,138.5,0.2c-16.9-1-33.6,1.3-49.7,6.8C72.7,12.5,58,20.9,45.2,32
		C31.9,43.5,21.3,57.4,13.5,73.2L13.5,73.2z"/>
	<path fill="#9A9A9A" d="M13.7,73.3c7.8-15.8,18.4-29.7,31.7-41.1C58.1,21.1,72.8,12.7,88.8,7.3c16.1-5.5,32.8-7.8,49.6-6.8
		c17.5,1,34.4,5.4,50.2,13.2c15.8,7.8,29.7,18.4,41.1,31.7c11.1,12.8,19.5,27.4,24.9,43.5c5.5,16.1,7.8,32.8,6.8,49.6
		c-1,17.5-5.4,34.4-13.2,50.2c-7.8,15.8-18.4,29.7-31.7,41.1c-12.8,11.1-27.4,19.5-43.5,24.9c-16.1,5.5-32.8,7.8-49.6,6.8
		c-17.5-1-34.4-5.4-50.2-13.2c-15.8-7.8-29.7-18.4-41.1-31.7c-11.1-12.8-19.5-27.4-24.9-43.5s-7.8-32.8-6.8-49.6
		C1.5,106,5.9,89.2,13.7,73.3 M13.5,73.2C5.7,89.1,1.2,106,0.2,123.5c-1,16.9,1.3,33.6,6.8,49.7c5.5,16.1,13.9,30.8,25,43.6
		c11.5,13.3,25.3,23.9,41.2,31.7c15.9,7.8,32.8,12.3,50.3,13.3c16.9,1,33.6-1.3,49.7-6.8c16.1-5.5,30.8-13.9,43.6-25
		c13.3-11.5,23.9-25.3,31.7-41.2c7.8-15.9,12.3-32.8,13.3-50.3c1-16.9-1.3-33.6-6.8-49.7c-5.5-16.1-13.9-30.8-25-43.6
		c-11.5-13.3-25.3-23.9-41.2-31.7C172.9,5.7,156,1.2,138.5,0.2c-16.9-1-33.6,1.3-49.7,6.8C72.7,12.5,58,20.9,45.2,32
		C31.9,43.5,21.3,57.4,13.5,73.2L13.5,73.2z"/>
	<circle fill="none" stroke="#CDCCCC" stroke-width="3" stroke-miterlimit="10" cx="131" cy="131" r="107.7"/>
</g>
</svg>
